<?xml version="1.0" encoding="utf-8"?><svg xmlns="http://www.w3.org/2000/svg" xmlns:xlink="http://www.w3.org/1999/xlink"><symbol viewBox="0 0 16.04 15.81" id="icon_add" xmlns="http://www.w3.org/2000/svg"><path fill-rule="evenodd" clip-rule="evenodd" d="M7.186 15.018c0 .489.402.885.898.885a.892.892 0 00.898-.885V8.885h6.222A.892.892 0 0016.102 8a.892.892 0 00-.898-.885H8.982V.982a.892.892 0 00-.898-.885.892.892 0 00-.898.885v6.133H.964A.892.892 0 00.066 8c0 .489.402.885.898.885h6.222v6.133z"/></symbol><symbol viewBox="0 0 29.94 30.52" id="icon_add_grey" xmlns="http://www.w3.org/2000/svg"><path fill-rule="evenodd" clip-rule="evenodd" d="M13.485 30.252a1 1 0 00.99 1.01h1.372a1 1 0 00.99-1.01V17.709h12.3a1 1 0 00.991-1.01V15.3a1 1 0 00-.99-1.01h-12.3V1.749a1 1 0 00-.991-1.01h-1.372a1 1 0 00-.99 1.01v12.543h-12.3a1 1 0 00-.99 1.01V16.7a1 1 0 00.99 1.01h12.3v12.542z"/></symbol><symbol viewBox="0 0 14.88 8.54" id="icon_arrow" xmlns="http://www.w3.org/2000/svg"><path d="M7.293 8.707a1 1 0 001.414 0l6.364-6.364A1 1 0 0013.657.93L8 6.586 2.343.929A1 1 0 00.93 2.343l6.364 6.364zM7 7v1h2V7H7z"/></symbol><symbol viewBox="0 0 14.88 8.54" id="icon_arrow_dark" xmlns="http://www.w3.org/2000/svg"><path d="M7.293 8.707a1 1 0 001.414 0l6.364-6.364A1 1 0 0013.657.93L8 6.586 2.343.929A1 1 0 00.93 2.343l6.364 6.364zM7 7v1h2V7H7z"/></symbol><symbol viewBox="0 0 16 20" id="icon_doc" xmlns="http://www.w3.org/2000/svg"><path d="M10 0H2a2 2 0 00-2 2v16c0 1.11.89 2 2 2h12c1.11 0 2-.89 2-2V6l-6-6zm4 18H2V2h7v5h5v11zm-5.46-1.5v-2h-4v-2h4v-2l3 3-3 3z"/></symbol><symbol viewBox="0 0 20 20" id="icon_nurse" xmlns="http://www.w3.org/2000/svg"><path d="M3.125 0L2.87.448S0 5.383 0 13.333v.953h5.54c-.06.313-.088.632-.085.952C5.455 17.858 7.5 20 10 20s4.546-2.143 4.546-4.762c0-.327-.025-.643-.086-.952H20v-.953c0-4.39-.706-7.61-1.42-9.733-.715-2.122-1.478-3.213-1.478-3.213L16.818 0H3.125zm1.108 1.905h11.563c.132.198.521.697 1.079 2.352.59 1.753 1.12 4.505 1.221 8.124h-4.46c-.831-1.152-2.16-1.905-3.636-1.905s-2.805.753-3.636 1.905h-4.46C2.11 6.048 3.933 2.448 4.233 1.905zM9.09 3.81v1.904H7.273V7.62H9.09v1.905h1.818V7.619h1.818V5.714H10.91V3.81H9.091zm.91 8.57c1.518 0 2.727 1.267 2.727 2.857 0 1.59-1.209 2.857-2.727 2.857-1.518 0-2.727-1.266-2.727-2.857 0-1.59 1.209-2.857 2.727-2.857zm0 1.905c-.241 0-.472.1-.643.279a.976.976 0 00-.266.673.98.98 0 00.266.674c.17.178.402.278.643.278s.472-.1.643-.279a.976.976 0 00.266-.673.976.976 0 00-.266-.673.889.889 0 00-.643-.28z"/></symbol><symbol viewBox="0 0 11.48 12.63" id="icon_user" xmlns="http://www.w3.org/2000/svg"><path d="M6.057.684a4.028 4.028 0 00-4.019 4.02 4.03 4.03 0 001.777 3.337c-2.048.878-3.5 2.91-3.5 5.275h1.149a4.585 4.585 0 014.593-4.594 4.585 4.585 0 014.594 4.594h1.148c0-2.366-1.451-4.397-3.499-5.276a4.03 4.03 0 001.776-3.337A4.028 4.028 0 006.057.684zm0 1.149a2.862 2.862 0 012.871 2.87 2.862 2.862 0 01-2.87 2.871 2.862 2.862 0 01-2.872-2.87 2.862 2.862 0 012.871-2.871z"/></symbol></svg>